<?xml version="1.0" encoding="utf-8"?>
<!-- Generator: Adobe Illustrator 19.0.0, SVG Export Plug-In . SVG Version: 6.00 Build 0)  -->
<svg version="1.1" id="Layer_1" xmlns="http://www.w3.org/2000/svg" xmlns:xlink="http://www.w3.org/1999/xlink" x="0px" y="0px"
	 viewBox="0 0 17.6 23.3" style="enable-background:new 0 0 17.6 23.3;" xml:space="preserve">
<style type="text/css">
	.st0{fill:#E87825;}
</style>
<path id="XMLID_2_" class="st0" d="M0.9,4.9c0.9-1.7,2.2-3,3.9-4c0.3-0.1,0.5-0.2,0.8-0.4c0.5-0.1,1-0.3,1.5-0.4
	c0.2,0,0.3,0,0.5-0.1C8,0.1,8.4,0,8.8,0c0.1,0,0.3,0,0.4,0c0.3,0,0.7,0.1,1,0.1c0.1,0.1,0.2,0.1,0.4,0.1c0.3,0.1,0.6,0.2,0.9,0.2
	c0.1,0.1,0.1,0.1,0.2,0.1c0.3,0.1,0.5,0.2,0.8,0.3c0.1,0.1,0.2,0.1,0.3,0.2c0.2,0.1,0.5,0.3,0.7,0.4c0.1,0.1,0.2,0.1,0.3,0.2
	C14,1.7,14.2,1.9,14.4,2c0.1,0,0.1,0.1,0.2,0.1c0.2,0.2,0.4,0.3,0.5,0.5c0,0.1,0.1,0.2,0.2,0.2c0.1,0.2,0.3,0.4,0.4,0.5
	c0.1,0.1,0.1,0.2,0.2,0.3c0.1,0.2,0.3,0.5,0.4,0.7c0.1,0.1,0.1,0.2,0.2,0.3c0.1,0.2,0.2,0.4,0.3,0.7c0,0.1,0,0.2,0.1,0.2
	c0.1,0.3,0.2,0.6,0.3,0.9c0,0.1,0,0.2,0.1,0.3c0.1,0.3,0.1,0.6,0.2,0.9c0,0.1,0,0.3,0,0.4c0,0.4,0,0.7,0,1.1c0,0.1,0,0.2,0,0.4
	c-0.1,0.5-0.2,1-0.3,1.5c-0.1,0.2-0.1,0.3-0.2,0.5c-0.3,0.8-0.7,1.5-1.1,2.2c-0.2,0.4-0.4,0.7-0.7,1.1c-1.4,1.9-3,3.7-4.5,5.5
	c-0.2,0.2-0.5,0.5-0.6,0.8c-0.3,0.4-0.6,0.8-0.8,1.2c-0.2,0.2-0.3,0.4-0.4,0.7c-0.1,0.2-0.2,0.3-0.4,0.2c0-0.1-0.1-0.2-0.1-0.2
	c-0.1-0.2-0.2-0.5-0.3-0.7c0-0.1-0.1-0.3-0.2-0.4c-0.1-0.2-0.3-0.4-0.4-0.6c0-0.1-0.1-0.2-0.2-0.2c-0.1-0.2-0.3-0.4-0.5-0.6
	c-0.1-0.1-0.1-0.2-0.2-0.2c-0.1-0.2-0.3-0.4-0.5-0.6c-0.1-0.1-0.2-0.2-0.3-0.3c-0.1-0.2-0.3-0.4-0.5-0.5c0-0.1-0.1-0.1-0.1-0.2
	c-0.2-0.3-0.4-0.5-0.6-0.7c0-0.1-0.1-0.1-0.2-0.2c-0.1-0.2-0.3-0.4-0.4-0.5C4,17.2,4,17.1,3.9,17c-0.1-0.2-0.3-0.4-0.4-0.5
	c-0.1-0.1-0.1-0.2-0.2-0.3c-0.2-0.2-0.3-0.4-0.5-0.6c0-0.1-0.1-0.1-0.1-0.2c-0.2-0.2-0.3-0.5-0.5-0.7c0-0.1-0.1-0.2-0.2-0.2
	c-0.2-0.3-0.3-0.5-0.5-0.8c0-0.1-0.1-0.2-0.1-0.2C1.2,13.2,1.1,13,1,12.7c0-0.1-0.1-0.2-0.1-0.3c-0.1-0.2-0.2-0.5-0.3-0.7
	c0-0.1,0-0.2-0.1-0.2c-0.1-0.3-0.2-0.6-0.2-0.9c0-0.1,0-0.2-0.1-0.3c0-0.3-0.1-0.7-0.1-1c0-0.2,0-0.3,0-0.5C0,8.4,0.1,8,0.1,7.6
	c0-0.2,0.1-0.4,0.1-0.5c0.1-0.5,0.3-1,0.4-1.5C0.7,5.3,0.8,5.1,0.9,4.9z M13,9.9c0-0.2,0.1-0.4,0.1-0.5c0.1-0.4,0.1-0.8,0-1.1
	c0-0.1,0-0.2-0.1-0.3c0-0.3-0.1-0.6-0.3-0.8c0-0.1-0.1-0.2-0.1-0.3c-0.1-0.3-0.2-0.5-0.4-0.7C12.2,6,12.1,5.9,12,5.8
	c-0.1-0.2-0.3-0.3-0.5-0.5c-0.1-0.1-0.2-0.2-0.3-0.2c-0.2-0.2-0.5-0.3-0.8-0.4c-0.1-0.1-0.2-0.1-0.4-0.1C9.7,4.5,9.4,4.4,9.1,4.4
	c-0.1,0-0.3,0-0.4,0c-0.5,0-0.9,0.1-1.4,0.2C6,5.1,5.1,6,4.7,7.3C4.5,7.8,4.4,8.2,4.4,8.7c0,0.2,0,0.3,0,0.5c0,0.4,0.1,0.7,0.2,1.1
	c0,0.1,0,0.2,0.1,0.2c0.1,0.3,0.2,0.5,0.3,0.7c0,0.1,0.1,0.2,0.2,0.3c0.1,0.2,0.3,0.4,0.5,0.6c0.1,0.1,0.1,0.2,0.3,0.2
	c0.2,0.2,0.4,0.4,0.7,0.5c0.1,0.1,0.2,0.1,0.3,0.1C7.3,13,7.6,13,7.9,13.1c0.1,0,0.2,0,0.3,0c0.4,0.1,0.8,0.1,1.2,0
	c0.2,0,0.3,0,0.5-0.1C11.5,12.6,12.6,11.5,13,9.9z"/>
</svg>
