<?xml version="1.0" standalone="no"?><!-- Generator: Gravit.io --><svg xmlns="http://www.w3.org/2000/svg" xmlns:xlink="http://www.w3.org/1999/xlink" style="isolation:isolate" viewBox="0 0 17 23" width="17" height="23"><defs><clipPath id="_clipPath_WSNGG8t9D2r3ovwV9jLsTdEzJyFSwATZ"><rect width="17" height="23"/></clipPath></defs><g clip-path="url(#_clipPath_WSNGG8t9D2r3ovwV9jLsTdEzJyFSwATZ)"><path d=" M 0.869 4.972 C 1.739 3.33 2.994 2.074 4.636 1.108 C 4.926 1.011 5.119 0.915 5.409 0.722 C 5.892 0.625 6.375 0.432 6.858 0.335 C 7.051 0.335 7.148 0.335 7.341 0.239 C 7.727 0.335 8.114 0.239 8.5 0.239 C 8.597 0.239 8.79 0.239 8.886 0.239 C 9.176 0.239 9.563 0.335 9.852 0.335 C 9.949 0.432 10.045 0.432 10.239 0.432 C 10.528 0.529 10.818 0.625 11.108 0.625 C 11.205 0.722 11.205 0.722 11.301 0.722 C 11.591 0.818 11.784 0.915 12.074 1.011 C 12.17 1.108 12.267 1.108 12.364 1.205 C 12.557 1.301 12.847 1.494 13.04 1.591 C 13.136 1.688 13.233 1.688 13.33 1.784 C 13.523 1.881 13.716 2.074 13.909 2.171 C 14.006 2.171 14.006 2.267 14.102 2.267 C 14.295 2.46 14.489 2.557 14.585 2.75 C 14.585 2.847 14.682 2.943 14.778 2.943 C 14.875 3.136 15.068 3.33 15.165 3.426 C 15.261 3.523 15.261 3.619 15.358 3.716 C 15.455 3.909 15.648 4.199 15.744 4.392 C 15.841 4.489 15.841 4.585 15.937 4.682 C 16.034 4.875 16.131 5.068 16.227 5.358 C 16.227 5.455 16.227 5.551 16.324 5.551 C 16.42 5.841 16.517 6.131 16.614 6.421 C 16.614 6.517 16.614 6.614 16.71 6.71 C 16.807 7 16.807 7.29 16.903 7.58 C 16.903 7.676 16.903 7.869 16.903 7.966 C 16.903 8.352 16.903 8.642 16.903 9.029 C 16.903 9.125 16.903 9.222 16.903 9.415 C 16.807 9.898 16.71 10.381 16.614 10.864 C 16.517 11.057 16.517 11.154 16.42 11.347 C 16.131 12.119 15.744 12.796 15.358 13.472 C 15.165 13.858 14.972 14.148 14.682 14.534 C 13.33 16.369 11.784 18.108 10.335 19.847 C 10.142 20.04 9.852 20.33 9.756 20.619 C 9.466 21.006 9.176 21.392 8.983 21.779 C 8.79 21.972 8.693 22.165 8.597 22.455 C 8.5 22.648 8.403 22.744 8.21 22.648 C 8.21 22.551 8.114 22.455 8.114 22.455 C 8.017 22.261 7.92 21.972 7.824 21.779 C 7.824 21.682 7.727 21.489 7.631 21.392 C 7.534 21.199 7.341 21.006 7.244 20.813 C 7.244 20.716 7.148 20.619 7.051 20.619 C 6.955 20.426 6.761 20.233 6.568 20.04 C 6.472 19.943 6.472 19.847 6.375 19.847 C 6.278 19.654 6.085 19.46 5.892 19.267 C 5.795 19.171 5.699 19.074 5.602 18.977 C 5.506 18.784 5.312 18.591 5.119 18.494 C 5.119 18.398 5.023 18.398 5.023 18.301 C 4.83 18.011 4.636 17.818 4.443 17.625 C 4.443 17.529 4.347 17.529 4.25 17.432 C 4.153 17.239 3.96 17.046 3.864 16.949 C 3.864 16.852 3.864 16.756 3.767 16.659 C 3.67 16.466 3.477 16.273 3.381 16.176 C 3.284 16.08 3.284 15.983 3.187 15.886 C 2.994 15.693 2.898 15.5 2.705 15.307 C 2.705 15.21 2.608 15.21 2.608 15.114 C 2.415 14.921 2.318 14.631 2.125 14.438 C 2.125 14.341 2.028 14.244 1.932 14.244 C 1.739 13.955 1.642 13.761 1.449 13.472 C 1.449 13.375 1.352 13.279 1.352 13.279 C 1.159 12.989 1.063 12.796 0.966 12.506 C 0.966 12.409 0.869 12.313 0.869 12.216 C 0.773 12.023 0.676 11.733 0.58 11.54 C 0.58 11.443 0.58 11.347 0.483 11.347 C 0.386 11.057 0.29 10.767 0.29 10.477 C 0.29 10.381 0.29 10.284 0.193 10.188 C 0.193 9.898 0.097 9.511 0.097 9.222 C 0.097 9.029 0.097 8.932 0.097 8.739 C 0 8.352 0.097 7.966 0.097 7.58 C 0.097 7.386 0.193 7.193 0.193 7.097 C 0.29 6.614 0.483 6.131 0.58 5.648 C 0.676 5.358 0.773 5.165 0.869 4.972 Z  M 12.557 9.801 C 12.557 9.608 12.653 9.415 12.653 9.318 C 12.75 8.932 12.75 8.546 12.653 8.256 C 12.653 8.159 12.653 8.063 12.557 7.966 C 12.557 7.676 12.46 7.386 12.267 7.193 C 12.267 7.097 12.17 7 12.17 6.904 C 12.074 6.614 11.977 6.421 11.784 6.227 C 11.784 6.034 11.687 5.938 11.591 5.841 C 11.494 5.648 11.301 5.551 11.108 5.358 C 11.011 5.261 10.915 5.165 10.818 5.165 C 10.625 4.972 10.335 4.875 10.045 4.779 C 9.949 4.682 9.852 4.682 9.659 4.682 C 9.369 4.585 9.08 4.489 8.79 4.489 C 8.693 4.489 8.5 4.489 8.403 4.489 C 7.92 4.489 7.534 4.585 7.051 4.682 C 5.795 5.165 4.926 6.034 4.54 7.29 C 4.347 7.773 4.25 8.159 4.25 8.642 C 4.25 8.835 4.25 8.932 4.25 9.125 C 4.25 9.511 4.347 9.801 4.443 10.188 C 4.443 10.284 4.443 10.381 4.54 10.381 C 4.636 10.671 4.733 10.864 4.83 11.057 C 4.83 11.154 4.926 11.25 5.023 11.347 C 5.119 11.54 5.313 11.733 5.506 11.926 C 5.602 12.023 5.602 12.119 5.795 12.119 C 5.989 12.313 6.182 12.506 6.472 12.602 C 6.568 12.699 6.665 12.699 6.761 12.699 C 7.051 12.796 7.341 12.796 7.631 12.892 C 7.727 12.892 7.824 12.892 7.92 12.892 C 8.307 12.989 8.693 12.989 9.08 12.892 C 9.273 12.892 9.369 12.892 9.563 12.796 C 11.108 12.409 12.17 11.347 12.557 9.801 Z " fill="rgb(255,255,255)"/></g></svg>