<?xml version="1.0" encoding="utf-8"?>
<!-- Generator: Adobe Illustrator 19.0.0, SVG Export Plug-In . SVG Version: 6.00 Build 0)  -->
<svg version="1.1" id="Layer_1" xmlns="http://www.w3.org/2000/svg" xmlns:xlink="http://www.w3.org/1999/xlink" x="0px" y="0px"
	 viewBox="0 0 179.6 86.2" style="enable-background:new 0 0 179.6 86.2;" xml:space="preserve">
<style type="text/css">
	.st0{fill:#101012;}
</style>
<path id="XMLID_154_" class="st0" d="M111.1,86.1c-6.1,0-11.6,0-17.9,0C99.5,86.1,105,86.1,111.1,86.1c-0.6-0.1-1.1-0.4-1.5-1
	c-3.9-5-7.7-10.1-12.3-16.1c27.9,1.1,54.5,2.2,82.4,3.3c-11.8-8.8-23.7-13.6-36.8-15c-18.4-1.9-36.8-3.4-55.1-5.2
	c-2.4-0.2-5.2,0.2-7-1.9c-7-8-15.6-13.9-25.4-17.9c-3.7-1.5-4.7-3.5-1.4-7c4.9-5.1,4.9-10.4,0.7-16.2C49.2,1.7,37.4-2,28.5,1.1
	c-10.6,3.6-12.9,14.2-4.7,21.8c2.7,2.5,5.9,4.4,9.3,5.7c4.5,1.7,9.1,3.1,13.5,4.9c9.1,3.5,16.6,9.1,22,17.3c1.6,2.4,1.6,3.8-1.5,5.1
	c-10.1,4.3-20.3,6.2-31,2.3c-3.1-1.1-6.2-2.2-9.4-3.2c-5.7-1.8-11.4-2.2-17.2-0.4C0.2,57.3-2.9,66.6,2.9,74.5
	c5.1,7.1,16.5,10.7,25.6,8.1c7.9-2.2,11-6,11.1-14.2c0.1-3.8,1.8-4.5,5-4.2c10.4,1,20.9,2,31.3,2.9c1.2,0.1,2.2,0.2,3,1.3
	c4.3,5.6,8.7,11.2,13.7,17.6l18.7,0C111.3,86.1,111.2,86.1,111.1,86.1z M50.8,19.2c-1.6,3.4-4,5.9-7.8,6.1
	c-7.1,0.4-12.8-2.6-17.2-8.1c-1.8-2.2-1.8-4.8-0.4-7.5c2.1-4,5.6-5.3,8.5-5.4c7,0,11.6,2.5,15.2,6.6C51.1,13.2,52.3,15.9,50.8,19.2z
	 M29.4,77c-7,4.2-18.3,1.3-22.3-5.8c-1.6-2.7-2.1-5.6-0.2-8.5c2.7-4.1,7-4.6,10.8-5c5.2,0.5,9.6,1.7,13.2,5
	C35.4,66.9,34.7,73.8,29.4,77z"/>
</svg>
